<svg xmlns="http://www.w3.org/2000/svg" width="19.562" height="23.06" viewBox="0 0 19.562 23.06"><defs><style> .ct-h8-svg-01-cl1 {        fill: #ededed;        fill-rule: evenodd;      } </style></defs><path data-name="Fill 29" class="ct-h8-svg-01-cl1" d="M464.375,1275.9l-0.544-5.36,5.2,5.22,0.288,0.29Zm-8.983,10.01H468.86v-7.87H455.392v7.87Zm16.467-9.86-0.06-.06-0.014-.01-8.066-7.82-0.224-.22a1.046,1.046,0,0,0-.6-0.17h-2.794v-0.55H455.76v0.55h-2.329a0.853,0.853,0,0,0-.931.74v19.06a0.853,0.853,0,0,0,.931.75h17.7a0.853,0.853,0,0,0,.932-0.75V1276.5a0.623,0.623,0,0,0-.2-0.45h0Z" transform="translate(-452.5 -1265.25)"></path><path data-name="Fill 30" class="ct-h8-svg-01-cl1" d="M463.719,1268.16l-0.223-.22a0.806,0.806,0,0,1,.223.22" transform="translate(-452.5 -1265.25)"></path><path data-name="Fill 31" class="ct-h8-svg-01-cl1" d="M455.392,1266.85h5.084v-1.6h-5.084v1.6Z" transform="translate(-452.5 -1265.25)"></path><path data-name="Fill 32" class="ct-h8-svg-01-cl1" d="M461.823,1284.2a0.611,0.611,0,0,1-.656-0.06,0.946,0.946,0,0,1-.62-0.63c0.066-.34.5-0.11,0.745,0.06A1.073,1.073,0,0,1,461.823,1284.2Zm2.39-2.25-0.038-.05-1.891-2.7-2,2.85a1.5,1.5,0,0,0-.284.88,2.343,2.343,0,0,0,4.568,0,1.571,1.571,0,0,0-.353-0.98h0Z" transform="translate(-452.5 -1265.25)"></path></svg>