<svg xmlns="http://www.w3.org/2000/svg" width="28.62" height="8.82" viewBox="0 0 28.62 8.82"><defs><style> .ct-h8-svg-04-cl1 {        fill: #ededed;        fill-rule: evenodd;      } </style></defs><path data-name="Fill 156" class="ct-h8-svg-04-cl1" d="M1285.14,1276.89v1.41h-6.75a2.411,2.411,0,0,1-4.33,0h-6.74v-1.41h6.74a2.169,2.169,0,0,1,1.34-1.2v-0.99h-0.41v-0.65h2.47v0.65h-0.4v0.99a2.2,2.2,0,0,1,1.34,1.2h6.74" transform="translate(-1261.91 -1273.12)"></path><path data-name="Fill 157" class="ct-h8-svg-04-cl1" d="M1290.15,1274.37l-1.34.41v-0.83l1.34-.42v0.84Zm0,1.08-1.34.42v-0.84l1.34-.41v0.83Zm0,1.09-1.34.42v-0.84l1.34-.42v0.84Zm0,1.08-1.34.42v-0.83l1.34-.42v0.83Zm0,1.09-1.34.42v-0.84l1.34-.41v0.83Zm0,1.09-1.34.42v-0.84l1.34-.42v0.84Zm0,1.08-1.34.42v-0.83l1.34-.42v0.83Zm0,0.85h-1.34v-0.18l1.34-.42v0.6Zm-1.92,0h0.32v-8.44h-0.32v8.44Zm-0.53,0h0.31v-8.44h-0.31v8.44Zm-1.6,0v-0.6l1.34,0.42v0.18h-1.34Zm0-1.68,1.34,0.42v0.83l-1.34-.42v-0.83Zm0-1.09,1.34,0.42v0.84l-1.34-.42v-0.84Zm0-1.08,1.34,0.41v0.84l-1.34-.42v-0.83Zm0-1.09,1.34,0.42v0.83l-1.34-.42v-0.83Zm0-1.09,1.34,0.42v0.84l-1.34-.42v-0.84Zm0-1.08,1.34,0.41v0.84l-1.34-.42v-0.83Zm0-1.09,1.34,0.42v0.83l-1.34-.41v-0.84Zm0-.25,0.05,0.01h1.29v0.41l-1.29-.41h-0.05v-0.01Zm2.71,0.01h1.29l0.04-.01v0.01h-0.04l-1.29.41v-0.41Zm1.46-.16c-0.03,0-.05-0.01-0.08-0.01h-0.05v0.01c-0.02,0-.04-0.01-0.07-0.01h-4a0.343,0.343,0,0,0-.35.32v8.18a0.335,0.335,0,0,0,.35.31h4.2a0.338,0.338,0,0,0,.27-0.31v-8.18a0.329,0.329,0,0,0-.27-0.31h0Z" transform="translate(-1261.91 -1273.12)"></path><path data-name="Fill 158" class="ct-h8-svg-04-cl1" d="M1266.33,1274.37l-1.34.41v-0.83l1.34-.42v0.84Zm0,1.08-1.34.42v-0.84l1.34-.41v0.83Zm0,1.09-1.34.42v-0.84l1.34-.42v0.84Zm0,1.08-1.34.42v-0.83l1.34-.42v0.83Zm0,1.09-1.34.42v-0.84l1.34-.41v0.83Zm0,1.09-1.34.42v-0.84l1.34-.42v0.84Zm0,1.08-1.34.42v-0.83l1.34-.42v0.83Zm0,0.85h-1.34v-0.18l1.34-.42v0.6Zm-1.92,0h0.31v-8.44h-0.31v8.44Zm-0.53,0h0.31v-8.44h-0.31v8.44Zm-1.6,0v-0.6l1.34,0.42v0.18h-1.34Zm0-1.68,1.34,0.42v0.83l-1.34-.42v-0.83Zm0-1.09,1.34,0.42v0.84l-1.34-.42v-0.84Zm0-1.08,1.34,0.41v0.84l-1.34-.42v-0.83Zm0-1.09,1.34,0.42v0.83l-1.34-.42v-0.83Zm0-1.09,1.34,0.42v0.84l-1.34-.42v-0.84Zm0-1.08,1.34,0.41v0.84l-1.34-.42v-0.83Zm0-1.09,1.34,0.42v0.83l-1.34-.41v-0.84Zm0-.25,0.05,0.01h1.29v0.41l-1.29-.41h-0.05v-0.01Zm2.71,0.01h1.28l0.05-.01v0.01h-0.05l-1.28.41v-0.41Zm1.45-.16c-0.02,0-.05-0.01-0.07-0.01h-0.05v0.01c-0.02,0-.05-0.01-0.07-0.01h-4a0.343,0.343,0,0,0-.35.32v8.18a0.335,0.335,0,0,0,.35.31h4.19a0.338,0.338,0,0,0,.28-0.31v-8.18a0.329,0.329,0,0,0-.28-0.31h0Z" transform="translate(-1261.91 -1273.12)"></path></svg>