<svg xmlns="http://www.w3.org/2000/svg" width="26.094" height="22.35" viewBox="0 0 26.094 22.35"><defs><style> .ct-h8-svg-03-cl1 {        fill: #ededed;        fill-rule: evenodd;      } </style></defs><path data-name="Fill 144" class="ct-h8-svg-03-cl1" d="M996.122,1270.61h0.106v-0.04Zm-0.06-.43a0.848,0.848,0,0,1,.166.02v-0.02h-0.166Zm-9.221.39v0.04h0.12l-0.12-.04h0Z" transform="translate(-971.062 -1266.56)"></path><path data-name="Fill 145" class="ct-h8-svg-03-cl1" d="M996.242,1272.82l-3.111.89v-1.78l3.111-.89v1.78Zm0,2.31-3.111.88v-1.77l3.111-.89v1.78Zm0,2.31-3.111.88v-1.77l3.111-.89v1.78Zm0,2.3-3.111.89v-1.77l3.111-.89v1.77Zm0,2.31-3.111.89v-1.77l3.111-.89v1.77Zm0,2.31-3.111.89v-1.78l3.111-.88v1.77Zm0,2.31-3.111.89v-1.78l3.111-.88v1.77Zm0,1.8h-3.111v-0.38l3.111-.89v1.27Zm-4.445,0h0.722v-17.93H991.8v17.93Zm-1.229,0h0.718v-17.93h-0.718v17.93Zm-3.727,0v-1.27l3.111,0.89v0.38h-3.111Zm0-3.57,3.111,0.88v1.78l-3.111-.89v-1.77Zm0-2.31,3.111,0.88v1.78l-3.111-.89v-1.77Zm0-2.31,3.111,0.89v1.77l-3.111-.89v-1.77Zm0-2.31,3.111,0.89v1.77l-3.111-.89v-1.77Zm0-2.31,3.111,0.89v1.77l-3.111-.88v-1.78Zm0-2.31,3.111,0.89v1.77l-3.111-.88v-1.78Zm0-2.31,3.111,0.89v1.78l-3.111-.89v-1.78Zm0-.53,0.12,0.03h2.991v0.86l-2.991-.86h-0.12v-0.03Zm6.29,0.03h2.991l0.106-.02v0.02h-0.106l-2.991.86v-0.86Zm3.387-.34a1.1,1.1,0,0,0-.18-0.02h-0.11v0.02a0.848,0.848,0,0,0-.166-0.02h-9.28a0.757,0.757,0,0,0-.819.67v17.39a0.75,0.75,0,0,0,.819.66h9.556a1.087,1.087,0,0,0,.18-0.01,0.717,0.717,0,0,0,.639-0.65v-17.39a0.717,0.717,0,0,0-.639-0.65h0Z" transform="translate(-971.062 -1266.56)"></path><path data-name="Fill 146" class="ct-h8-svg-03-cl1" d="M991.8,1288.91h0.722v-0.01H991.8v0.01Z" transform="translate(-971.062 -1266.56)"></path><path data-name="Fill 147" class="ct-h8-svg-03-cl1" d="M990.568,1288.91h0.718v-0.01h-0.718v0.01Z" transform="translate(-971.062 -1266.56)"></path><path data-name="Fill 148" class="ct-h8-svg-03-cl1" d="M984.711,1285.12h0.759v-11.15h-0.759v11.15Z" transform="translate(-971.062 -1266.56)"></path><path data-name="Fill 149" class="ct-h8-svg-03-cl1" d="M984.251,1278.07v2.95h-13.2v-2.95h5.765a1.456,1.456,0,0,0,.373.57,1.711,1.711,0,0,0,1.206.48,1.657,1.657,0,0,0,1.578-1.05h4.279" transform="translate(-971.062 -1266.56)"></path><path data-name="Fill 150" class="ct-h8-svg-03-cl1" d="M979.585,1267.53H977.2a1.2,1.2,0,0,1,1.192-.97,1.222,1.222,0,0,1,.851.34,1.133,1.133,0,0,1,.34.63" transform="translate(-971.062 -1266.56)"></path><path data-name="Fill 151" class="ct-h8-svg-03-cl1" d="M979.6,1277.38v0.21a1.183,1.183,0,0,1-1.205,1.16,1.27,1.27,0,0,1-.852-0.34,1.144,1.144,0,0,1-.354-0.82v-0.21H979.6" transform="translate(-971.062 -1266.56)"></path><path data-name="Fill 152" class="ct-h8-svg-03-cl1" d="M980.4,1269.9h-1.151l1.238,0.37,0.1,0.03c0,0.01,0,.01.009,0.01a0.41,0.41,0,0,1,.308.37,0.46,0.46,0,0,1-.5.41h-1.151l1.238,0.36a0.4,0.4,0,0,1,.1.04h0.009a0.42,0.42,0,0,1,.308.37,0.46,0.46,0,0,1-.5.41h-1.137l1.224,0.36a0.7,0.7,0,0,1,.414.42,0.46,0.46,0,0,1-.5.4h-1.151l1.238,0.37c0.032,0.01.065,0.02,0.092,0.03a0.423,0.423,0,0,1,.322.38,0.46,0.46,0,0,1-.5.41h-1.151l1.238,0.36a0.4,0.4,0,0,1,.1.04h0.009a0.42,0.42,0,0,1,.308.37,0.46,0.46,0,0,1-.5.41h-1.151l1.238,0.36a0.4,0.4,0,0,1,.1.04h0.009a0.421,0.421,0,0,1,.308.38,0.467,0.467,0,0,1-.5.41h-4.178a0.469,0.469,0,0,1-.506-0.41,0.462,0.462,0,0,1,.506-0.41h1.32l-1.265-.37h-0.055a0.415,0.415,0,1,1,0-.81h1.33l-1.261-.37h-0.069a0.462,0.462,0,0,1-.506-0.41,0.469,0.469,0,0,1,.506-0.41h1.32l-1.265-.37h-0.055a0.462,0.462,0,0,1-.506-0.4,0.469,0.469,0,0,1,.506-0.41h1.33l-1.261-.37h-0.069a0.415,0.415,0,1,1,0-.81h1.33l-1.261-.37h-0.069a0.462,0.462,0,0,1-.506-0.41,0.469,0.469,0,0,1,.506-0.41h1.32l-1.265-.37h-0.055a0.415,0.415,0,1,1,0-.81h1.33l-1.261-.37h-0.069a0.415,0.415,0,1,1,0-.81H980.4a0.414,0.414,0,1,1,0,.81h-1.151l1.238,0.36a0.4,0.4,0,0,0,.1.04c0,0.01,0,.01.009,0.01a0.41,0.41,0,0,1,.308.37,0.46,0.46,0,0,1-.5.4" transform="translate(-971.062 -1266.56)"></path><path data-name="Fill 153" class="ct-h8-svg-03-cl1" d="M986.961,1270.54h-0.12v-0.03l0.12,0.03" transform="translate(-971.062 -1266.56)"></path><path data-name="Fill 154" class="ct-h8-svg-03-cl1" d="M996.228,1270.18v0.02a0.848,0.848,0,0,0-.166-0.02h0.166" transform="translate(-971.062 -1266.56)"></path><path data-name="Fill 155" class="ct-h8-svg-03-cl1" d="M996.228,1270.52v0.02h-0.106l0.106-.02" transform="translate(-971.062 -1266.56)"></path></svg>