<svg xmlns="http://www.w3.org/2000/svg" width="21.562" height="21.56" viewBox="0 0 21.562 21.56"><defs><style> .ct-h8-svg-02-cl1 {        fill: #ededed;        fill-rule: evenodd;      } </style></defs><path data-name="Fill 33" class="ct-h8-svg-02-cl1" d="M751.059,1284.65l-0.689.62c-0.186.14-.406,0.3-0.644,0.46a5.951,5.951,0,0,1-.835.48,8.848,8.848,0,0,1-4.12,1.01h-0.023a8.885,8.885,0,0,1-4.169-1.05l-0.816-.49a5.714,5.714,0,0,1-.581-0.43h-0.007l-0.075-.05-0.622-.57-0.041-.04a8.945,8.945,0,0,1-2.66-6.41,8.4,8.4,0,0,1,.145-1.51,7.193,7.193,0,0,1,.2-0.94c0.056-.19.13-0.39,0.2-0.59l0.041-.11a5.541,5.541,0,0,1,.409-0.9,8.961,8.961,0,0,1,6.71-4.82,7.1,7.1,0,0,1,.92-0.08c0.1-.01.206-0.01,0.314-0.01l0.1-.01a2.747,2.747,0,0,1,.41.03,7.442,7.442,0,0,1,.909.08,9.015,9.015,0,0,1,6.695,4.88,6.882,6.882,0,0,1,.38.89,4.525,4.525,0,0,1,.235.72,5.852,5.852,0,0,1,.209.94,9.18,9.18,0,0,1,.126,1.5A8.925,8.925,0,0,1,751.059,1284.65Zm-6.24-17.21a10.78,10.78,0,1,0,10.741,10.82,10.784,10.784,0,0,0-10.741-10.82h0Z" transform="translate(-734 -1267.44)"></path><path data-name="Fill 34" class="ct-h8-svg-02-cl1" d="M750.378,1283.79l-2.884-4.74,5.1-2.04a6.905,6.905,0,0,1,.093,1.24A7.785,7.785,0,0,1,750.378,1283.79Zm-0.69.63c-0.182.13-.353,0.27-0.562,0.41,0,0-.008,0-0.011.01l-2.981-4.12a2.87,2.87,0,0,0,.6-0.44l2.966,4.12A0.053,0.053,0,0,1,749.688,1284.42Zm-4.936,1.71a7.8,7.8,0,0,1-3.569-.88l3.558-4.19,3.569,4.23A7.763,7.763,0,0,1,744.752,1286.13Zm-4.37-1.35-0.023-.02a3.443,3.443,0,0,1-.521-0.38l-0.034-.02,3-4.11a2.264,2.264,0,0,0,.592.44Zm-1.259-1.05a7.822,7.822,0,0,1-2.258-5.55,8.361,8.361,0,0,1,.108-1.22l0.052,0.02,5.037,2.07Zm-1.945-7.69a6.291,6.291,0,0,1,.208-0.64,0.2,0.2,0,0,0,.015-0.03l4.832,1.6a2.729,2.729,0,0,0-.242.69l-4.824-1.59C737.17,1276.06,737.174,1276.05,737.178,1276.04Zm6.356-5.63-0.4,5.49h0l-5.346-1.36A7.887,7.887,0,0,1,743.534,1270.41Zm-0.649,7.57a0.41,0.41,0,1,1,.414-0.41A0.41,0.41,0,0,1,742.885,1277.98Zm0.716,1.41a0.415,0.415,0,1,1-.414.42A0.419,0.419,0,0,1,743.6,1279.39Zm1.177-2.32a1.145,1.145,0,1,1-1.144,1.15A1.153,1.153,0,0,1,744.778,1277.07Zm0-1.31a0.41,0.41,0,1,1-.414.41A0.408,0.408,0,0,1,744.778,1275.76Zm-0.346-5.44a0.256,0.256,0,0,1,.085-0.01h0.347c0.074,0,.16,0,0.294.01h0.015l-0.019,5.08a2.345,2.345,0,0,0-.376-0.02,2.308,2.308,0,0,0-.373.02Zm1.944,9.49a0.413,0.413,0,0,1-.826,0A0.413,0.413,0,1,1,746.376,1279.81Zm0.723-2.24a0.414,0.414,0,1,1-.413-0.41A0.41,0.41,0,0,1,747.1,1277.57Zm4.709-2.98-5.365,1.32-0.365-5.49A7.941,7.941,0,0,1,751.808,1274.59Zm0.388,0.89a5.806,5.806,0,0,1,.2.63,0.036,0.036,0,0,0,0,.02l-4.84,1.55a2.578,2.578,0,0,0-.227-0.69l4.839-1.56A0.341,0.341,0,0,0,752.2,1275.48Zm1.088,1.32a5.466,5.466,0,0,0-.2-0.9,4.176,4.176,0,0,0-.224-0.69,7.3,7.3,0,0,0-.361-0.84,8.67,8.67,0,0,0-6.412-4.68,6.989,6.989,0,0,0-.906-0.08,2.186,2.186,0,0,0-.361-0.02,2.4,2.4,0,0,0-.384.02,6.659,6.659,0,0,0-.9.07,8.608,8.608,0,0,0-6.438,4.63,5.949,5.949,0,0,0-.383.84c-0.079.23-.164,0.46-0.231,0.69a7.244,7.244,0,0,0-.2.89,8.185,8.185,0,0,0-.137,1.45,8.592,8.592,0,0,0,2.551,6.14l0.03,0.03,0.622,0.57,0.027,0.01a5.533,5.533,0,0,0,.577.43l0.8,0.48a8.375,8.375,0,0,0,3.994,1,8.482,8.482,0,0,0,3.983-.96,5,5,0,0,0,.793-0.47c0.209-.13.407-0.28,0.6-0.42l0.678-.61a8.586,8.586,0,0,0,2.608-6.13,8.9,8.9,0,0,0-.123-1.45h0Z" transform="translate(-734 -1267.44)"></path></svg>